<?xml version="1.0" encoding="utf-8" standalone="no"?>
<!DOCTYPE svg PUBLIC "-//W3C//DTD SVG 1.1//EN"
  "http://www.w3.org/Graphics/SVG/1.1/DTD/svg11.dtd">
<svg xmlns:xlink="http://www.w3.org/1999/xlink" width="430.990391pt" height="429.658094pt" viewBox="0 0 430.990391 429.658094" xmlns="http://www.w3.org/2000/svg" version="1.1">
 <metadata>
  <rdf:RDF xmlns:dc="http://purl.org/dc/elements/1.1/" xmlns:cc="http://creativecommons.org/ns#" xmlns:rdf="http://www.w3.org/1999/02/22-rdf-syntax-ns#">
   <cc:Work>
    <dc:type rdf:resource="http://purl.org/dc/dcmitype/StillImage"/>
    <dc:date>2026-04-21T14:04:09.490839</dc:date>
    <dc:format>image/svg+xml</dc:format>
    <dc:creator>
     <cc:Agent>
      <dc:title>Matplotlib v3.10.8, https://matplotlib.org/</dc:title>
     </cc:Agent>
    </dc:creator>
   </cc:Work>
  </rdf:RDF>
 </metadata>
 <defs>
  <style type="text/css">*{stroke-linejoin: round; stroke-linecap: butt}</style>
 </defs>
 <g id="figure_1">
  <g id="patch_1">
   <path d="M 0 429.658094 
L 430.990391 429.658094 
L 430.990391 0 
L 0 0 
z
" style="fill: #f5f1ea"/>
  </g>
  <g id="axes_1">
   <g id="patch_2">
    <path d="M 51.740938 391.134031 
L 412.100937 391.134031 
L 412.100937 30.774031 
L 51.740938 30.774031 
z
" style="fill: #f5f1ea"/>
   </g>
   <g id="matplotlib.axis_1">
    <g id="xtick_1">
     <g id="line2d_1">
      <path d="M 51.740937 391.134031 
L 51.740937 30.774031 
" clip-path="url(#p21c42e5e83)" style="fill: none; stroke-dasharray: 0.8,1.32; stroke-dashoffset: 0; stroke: #d4c9b2; stroke-width: 0.8"/>
     </g>
     <g id="line2d_2">
      <defs>
       <path id="mb94e6d3f6e" d="M 0 0 
L 0 3.5 
" style="stroke: #101012; stroke-width: 0.8"/>
      </defs>
      <g>
       <use xlink:href="#mb94e6d3f6e" x="51.740937" y="391.134031" style="fill: #101012; stroke: #101012; stroke-width: 0.8"/>
      </g>
     </g>
     <g id="text_1">
      <!-- 2.00 -->
      <g style="fill: #101012" transform="translate(40.051484 406.112391) scale(0.105 -0.105)">
       <defs>
        <path id="DejaVuSerif-32" d="M 819 3553 
L 469 3553 
L 469 4384 
Q 803 4563 1142 4656 
Q 1481 4750 1806 4750 
Q 2534 4750 2956 4397 
Q 3378 4044 3378 3438 
Q 3378 2753 2422 1800 
Q 2347 1728 2309 1691 
L 1131 513 
L 3078 513 
L 3078 1088 
L 3444 1088 
L 3444 0 
L 434 0 
L 434 341 
L 1850 1753 
Q 2319 2222 2519 2614 
Q 2719 3006 2719 3438 
Q 2719 3909 2473 4175 
Q 2228 4441 1797 4441 
Q 1350 4441 1106 4219 
Q 863 3997 819 3553 
z
" transform="scale(0.015625)"/>
        <path id="DejaVuSerif-2e" d="M 603 325 
Q 603 500 722 622 
Q 841 744 1019 744 
Q 1191 744 1312 622 
Q 1434 500 1434 325 
Q 1434 153 1312 31 
Q 1191 -91 1019 -91 
Q 841 -91 722 29 
Q 603 150 603 325 
z
" transform="scale(0.015625)"/>
        <path id="DejaVuSerif-30" d="M 2034 219 
Q 2513 219 2750 744 
Q 2988 1269 2988 2328 
Q 2988 3391 2750 3916 
Q 2513 4441 2034 4441 
Q 1556 4441 1318 3916 
Q 1081 3391 1081 2328 
Q 1081 1269 1318 744 
Q 1556 219 2034 219 
z
M 2034 -91 
Q 1275 -91 848 546 
Q 422 1184 422 2328 
Q 422 3475 848 4112 
Q 1275 4750 2034 4750 
Q 2797 4750 3222 4112 
Q 3647 3475 3647 2328 
Q 3647 1184 3222 546 
Q 2797 -91 2034 -91 
z
" transform="scale(0.015625)"/>
       </defs>
       <use xlink:href="#DejaVuSerif-32"/>
       <use xlink:href="#DejaVuSerif-2e" transform="translate(63.623047 0)"/>
       <use xlink:href="#DejaVuSerif-30" transform="translate(95.410156 0)"/>
       <use xlink:href="#DejaVuSerif-30" transform="translate(159.033203 0)"/>
      </g>
     </g>
    </g>
    <g id="xtick_2">
     <g id="line2d_3">
      <path d="M 96.785937 391.134031 
L 96.785937 30.774031 
" clip-path="url(#p21c42e5e83)" style="fill: none; stroke-dasharray: 0.8,1.32; stroke-dashoffset: 0; stroke: #d4c9b2; stroke-width: 0.8"/>
     </g>
     <g id="line2d_4">
      <g>
       <use xlink:href="#mb94e6d3f6e" x="96.785937" y="391.134031" style="fill: #101012; stroke: #101012; stroke-width: 0.8"/>
      </g>
     </g>
     <g id="text_2">
      <!-- 2.25 -->
      <g style="fill: #101012" transform="translate(85.096484 406.112391) scale(0.105 -0.105)">
       <defs>
        <path id="DejaVuSerif-35" d="M 3219 4666 
L 3219 4153 
L 1081 4153 
L 1081 2816 
Q 1244 2928 1461 2984 
Q 1678 3041 1947 3041 
Q 2703 3041 3140 2622 
Q 3578 2203 3578 1478 
Q 3578 738 3136 323 
Q 2694 -91 1894 -91 
Q 1572 -91 1234 -12 
Q 897 66 544 225 
L 544 1131 
L 897 1131 
Q 925 688 1179 453 
Q 1434 219 1894 219 
Q 2388 219 2653 544 
Q 2919 869 2919 1478 
Q 2919 2084 2655 2407 
Q 2391 2731 1894 2731 
Q 1613 2731 1398 2631 
Q 1184 2531 1019 2322 
L 750 2322 
L 750 4666 
L 3219 4666 
z
" transform="scale(0.015625)"/>
       </defs>
       <use xlink:href="#DejaVuSerif-32"/>
       <use xlink:href="#DejaVuSerif-2e" transform="translate(63.623047 0)"/>
       <use xlink:href="#DejaVuSerif-32" transform="translate(95.410156 0)"/>
       <use xlink:href="#DejaVuSerif-35" transform="translate(159.033203 0)"/>
      </g>
     </g>
    </g>
    <g id="xtick_3">
     <g id="line2d_5">
      <path d="M 141.830938 391.134031 
L 141.830938 30.774031 
" clip-path="url(#p21c42e5e83)" style="fill: none; stroke-dasharray: 0.8,1.32; stroke-dashoffset: 0; stroke: #d4c9b2; stroke-width: 0.8"/>
     </g>
     <g id="line2d_6">
      <g>
       <use xlink:href="#mb94e6d3f6e" x="141.830938" y="391.134031" style="fill: #101012; stroke: #101012; stroke-width: 0.8"/>
      </g>
     </g>
     <g id="text_3">
      <!-- 2.50 -->
      <g style="fill: #101012" transform="translate(130.141484 406.112391) scale(0.105 -0.105)">
       <use xlink:href="#DejaVuSerif-32"/>
       <use xlink:href="#DejaVuSerif-2e" transform="translate(63.623047 0)"/>
       <use xlink:href="#DejaVuSerif-35" transform="translate(95.410156 0)"/>
       <use xlink:href="#DejaVuSerif-30" transform="translate(159.033203 0)"/>
      </g>
     </g>
    </g>
    <g id="xtick_4">
     <g id="line2d_7">
      <path d="M 186.875937 391.134031 
L 186.875937 30.774031 
" clip-path="url(#p21c42e5e83)" style="fill: none; stroke-dasharray: 0.8,1.32; stroke-dashoffset: 0; stroke: #d4c9b2; stroke-width: 0.8"/>
     </g>
     <g id="line2d_8">
      <g>
       <use xlink:href="#mb94e6d3f6e" x="186.875937" y="391.134031" style="fill: #101012; stroke: #101012; stroke-width: 0.8"/>
      </g>
     </g>
     <g id="text_4">
      <!-- 2.75 -->
      <g style="fill: #101012" transform="translate(175.186484 406.112391) scale(0.105 -0.105)">
       <defs>
        <path id="DejaVuSerif-37" d="M 3609 4347 
L 1784 0 
L 1319 0 
L 3059 4153 
L 903 4153 
L 903 3578 
L 538 3578 
L 538 4666 
L 3609 4666 
L 3609 4347 
z
" transform="scale(0.015625)"/>
       </defs>
       <use xlink:href="#DejaVuSerif-32"/>
       <use xlink:href="#DejaVuSerif-2e" transform="translate(63.623047 0)"/>
       <use xlink:href="#DejaVuSerif-37" transform="translate(95.410156 0)"/>
       <use xlink:href="#DejaVuSerif-35" transform="translate(159.033203 0)"/>
      </g>
     </g>
    </g>
    <g id="xtick_5">
     <g id="line2d_9">
      <path d="M 231.920937 391.134031 
L 231.920937 30.774031 
" clip-path="url(#p21c42e5e83)" style="fill: none; stroke-dasharray: 0.8,1.32; stroke-dashoffset: 0; stroke: #d4c9b2; stroke-width: 0.8"/>
     </g>
     <g id="line2d_10">
      <g>
       <use xlink:href="#mb94e6d3f6e" x="231.920937" y="391.134031" style="fill: #101012; stroke: #101012; stroke-width: 0.8"/>
      </g>
     </g>
     <g id="text_5">
      <!-- 3.00 -->
      <g style="fill: #101012" transform="translate(220.231484 406.112391) scale(0.105 -0.105)">
       <defs>
        <path id="DejaVuSerif-33" d="M 622 4469 
Q 988 4606 1323 4678 
Q 1659 4750 1953 4750 
Q 2638 4750 3022 4454 
Q 3406 4159 3406 3634 
Q 3406 3213 3140 2930 
Q 2875 2647 2388 2547 
Q 2963 2466 3280 2130 
Q 3597 1794 3597 1259 
Q 3597 606 3158 257 
Q 2719 -91 1894 -91 
Q 1528 -91 1179 -12 
Q 831 66 488 225 
L 488 1131 
L 838 1131 
Q 869 681 1141 450 
Q 1413 219 1906 219 
Q 2384 219 2661 495 
Q 2938 772 2938 1253 
Q 2938 1803 2653 2086 
Q 2369 2369 1819 2369 
L 1522 2369 
L 1522 2688 
L 1678 2688 
Q 2225 2688 2498 2914 
Q 2772 3141 2772 3597 
Q 2772 4006 2547 4223 
Q 2322 4441 1900 4441 
Q 1478 4441 1245 4241 
Q 1013 4041 972 3647 
L 622 3647 
L 622 4469 
z
" transform="scale(0.015625)"/>
       </defs>
       <use xlink:href="#DejaVuSerif-33"/>
       <use xlink:href="#DejaVuSerif-2e" transform="translate(63.623047 0)"/>
       <use xlink:href="#DejaVuSerif-30" transform="translate(95.410156 0)"/>
       <use xlink:href="#DejaVuSerif-30" transform="translate(159.033203 0)"/>
      </g>
     </g>
    </g>
    <g id="xtick_6">
     <g id="line2d_11">
      <path d="M 276.965937 391.134031 
L 276.965937 30.774031 
" clip-path="url(#p21c42e5e83)" style="fill: none; stroke-dasharray: 0.8,1.32; stroke-dashoffset: 0; stroke: #d4c9b2; stroke-width: 0.8"/>
     </g>
     <g id="line2d_12">
      <g>
       <use xlink:href="#mb94e6d3f6e" x="276.965937" y="391.134031" style="fill: #101012; stroke: #101012; stroke-width: 0.8"/>
      </g>
     </g>
     <g id="text_6">
      <!-- 3.25 -->
      <g style="fill: #101012" transform="translate(265.276484 406.112391) scale(0.105 -0.105)">
       <use xlink:href="#DejaVuSerif-33"/>
       <use xlink:href="#DejaVuSerif-2e" transform="translate(63.623047 0)"/>
       <use xlink:href="#DejaVuSerif-32" transform="translate(95.410156 0)"/>
       <use xlink:href="#DejaVuSerif-35" transform="translate(159.033203 0)"/>
      </g>
     </g>
    </g>
    <g id="xtick_7">
     <g id="line2d_13">
      <path d="M 322.010937 391.134031 
L 322.010937 30.774031 
" clip-path="url(#p21c42e5e83)" style="fill: none; stroke-dasharray: 0.8,1.32; stroke-dashoffset: 0; stroke: #d4c9b2; stroke-width: 0.8"/>
     </g>
     <g id="line2d_14">
      <g>
       <use xlink:href="#mb94e6d3f6e" x="322.010937" y="391.134031" style="fill: #101012; stroke: #101012; stroke-width: 0.8"/>
      </g>
     </g>
     <g id="text_7">
      <!-- 3.50 -->
      <g style="fill: #101012" transform="translate(310.321484 406.112391) scale(0.105 -0.105)">
       <use xlink:href="#DejaVuSerif-33"/>
       <use xlink:href="#DejaVuSerif-2e" transform="translate(63.623047 0)"/>
       <use xlink:href="#DejaVuSerif-35" transform="translate(95.410156 0)"/>
       <use xlink:href="#DejaVuSerif-30" transform="translate(159.033203 0)"/>
      </g>
     </g>
    </g>
    <g id="xtick_8">
     <g id="line2d_15">
      <path d="M 367.055938 391.134031 
L 367.055938 30.774031 
" clip-path="url(#p21c42e5e83)" style="fill: none; stroke-dasharray: 0.8,1.32; stroke-dashoffset: 0; stroke: #d4c9b2; stroke-width: 0.8"/>
     </g>
     <g id="line2d_16">
      <g>
       <use xlink:href="#mb94e6d3f6e" x="367.055938" y="391.134031" style="fill: #101012; stroke: #101012; stroke-width: 0.8"/>
      </g>
     </g>
     <g id="text_8">
      <!-- 3.75 -->
      <g style="fill: #101012" transform="translate(355.366484 406.112391) scale(0.105 -0.105)">
       <use xlink:href="#DejaVuSerif-33"/>
       <use xlink:href="#DejaVuSerif-2e" transform="translate(63.623047 0)"/>
       <use xlink:href="#DejaVuSerif-37" transform="translate(95.410156 0)"/>
       <use xlink:href="#DejaVuSerif-35" transform="translate(159.033203 0)"/>
      </g>
     </g>
    </g>
    <g id="xtick_9">
     <g id="line2d_17">
      <path d="M 412.100937 391.134031 
L 412.100937 30.774031 
" clip-path="url(#p21c42e5e83)" style="fill: none; stroke-dasharray: 0.8,1.32; stroke-dashoffset: 0; stroke: #d4c9b2; stroke-width: 0.8"/>
     </g>
     <g id="line2d_18">
      <g>
       <use xlink:href="#mb94e6d3f6e" x="412.100937" y="391.134031" style="fill: #101012; stroke: #101012; stroke-width: 0.8"/>
      </g>
     </g>
     <g id="text_9">
      <!-- 4.00 -->
      <g style="fill: #101012" transform="translate(400.411484 406.112391) scale(0.105 -0.105)">
       <defs>
        <path id="DejaVuSerif-34" d="M 2234 1581 
L 2234 4063 
L 641 1581 
L 2234 1581 
z
M 3609 0 
L 1484 0 
L 1484 331 
L 2234 331 
L 2234 1247 
L 197 1247 
L 197 1588 
L 2241 4750 
L 2859 4750 
L 2859 1581 
L 3750 1581 
L 3750 1247 
L 2859 1247 
L 2859 331 
L 3609 331 
L 3609 0 
z
" transform="scale(0.015625)"/>
       </defs>
       <use xlink:href="#DejaVuSerif-34"/>
       <use xlink:href="#DejaVuSerif-2e" transform="translate(63.623047 0)"/>
       <use xlink:href="#DejaVuSerif-30" transform="translate(95.410156 0)"/>
       <use xlink:href="#DejaVuSerif-30" transform="translate(159.033203 0)"/>
      </g>
     </g>
    </g>
    <g id="text_10">
     <!-- Predicted mean GPA -->
     <g style="fill: #101012" transform="translate(177.240547 420.274422) scale(0.105 -0.105)">
      <defs>
       <path id="DejaVuSerif-50" d="M 1581 2375 
L 2406 2375 
Q 2872 2375 3115 2626 
Q 3359 2878 3359 3353 
Q 3359 3831 3115 4081 
Q 2872 4331 2406 4331 
L 1581 4331 
L 1581 2375 
z
M 353 0 
L 353 331 
L 947 331 
L 947 4331 
L 353 4331 
L 353 4666 
L 2559 4666 
Q 3259 4666 3668 4311 
Q 4078 3956 4078 3353 
Q 4078 2753 3668 2397 
Q 3259 2041 2559 2041 
L 1581 2041 
L 1581 331 
L 2303 331 
L 2303 0 
L 353 0 
z
" transform="scale(0.015625)"/>
       <path id="DejaVuSerif-72" d="M 3059 3328 
L 3059 2497 
L 2728 2497 
Q 2713 2744 2591 2866 
Q 2469 2988 2234 2988 
Q 1809 2988 1582 2694 
Q 1356 2400 1356 1850 
L 1356 331 
L 2022 331 
L 2022 0 
L 263 0 
L 263 331 
L 781 331 
L 781 2994 
L 231 2994 
L 231 3322 
L 1356 3322 
L 1356 2731 
Q 1525 3078 1790 3245 
Q 2056 3413 2438 3413 
Q 2578 3413 2733 3391 
Q 2888 3369 3059 3328 
z
" transform="scale(0.015625)"/>
       <path id="DejaVuSerif-65" d="M 3469 1600 
L 991 1600 
L 991 1575 
Q 991 903 1244 561 
Q 1497 219 1991 219 
Q 2369 219 2611 417 
Q 2853 616 2950 1006 
L 3413 1006 
Q 3275 459 2904 184 
Q 2534 -91 1931 -91 
Q 1203 -91 761 389 
Q 319 869 319 1663 
Q 319 2450 753 2931 
Q 1188 3413 1894 3413 
Q 2647 3413 3050 2948 
Q 3453 2484 3469 1600 
z
M 2791 1931 
Q 2772 2513 2545 2808 
Q 2319 3103 1894 3103 
Q 1497 3103 1269 2806 
Q 1041 2509 991 1931 
L 2791 1931 
z
" transform="scale(0.015625)"/>
       <path id="DejaVuSerif-64" d="M 3359 331 
L 3909 331 
L 3909 0 
L 2784 0 
L 2784 519 
Q 2616 206 2355 57 
Q 2094 -91 1709 -91 
Q 1097 -91 708 395 
Q 319 881 319 1663 
Q 319 2444 706 2928 
Q 1094 3413 1709 3413 
Q 2094 3413 2355 3264 
Q 2616 3116 2784 2803 
L 2784 4531 
L 2241 4531 
L 2241 4863 
L 3359 4863 
L 3359 331 
z
M 2784 1497 
L 2784 1825 
Q 2784 2422 2554 2737 
Q 2325 3053 1888 3053 
Q 1444 3053 1217 2703 
Q 991 2353 991 1663 
Q 991 975 1217 622 
Q 1444 269 1888 269 
Q 2325 269 2554 583 
Q 2784 897 2784 1497 
z
" transform="scale(0.015625)"/>
       <path id="DejaVuSerif-69" d="M 622 4353 
Q 622 4497 726 4603 
Q 831 4709 978 4709 
Q 1122 4709 1226 4603 
Q 1331 4497 1331 4353 
Q 1331 4206 1228 4103 
Q 1125 4000 978 4000 
Q 831 4000 726 4103 
Q 622 4206 622 4353 
z
M 1356 331 
L 1900 331 
L 1900 0 
L 231 0 
L 231 331 
L 781 331 
L 781 2988 
L 231 2988 
L 231 3322 
L 1356 3322 
L 1356 331 
z
" transform="scale(0.015625)"/>
       <path id="DejaVuSerif-63" d="M 3291 997 
Q 3169 466 2822 187 
Q 2475 -91 1925 -91 
Q 1200 -91 759 389 
Q 319 869 319 1663 
Q 319 2459 759 2936 
Q 1200 3413 1925 3413 
Q 2241 3413 2553 3339 
Q 2866 3266 3181 3116 
L 3181 2266 
L 2847 2266 
Q 2781 2703 2561 2903 
Q 2341 3103 1931 3103 
Q 1466 3103 1228 2742 
Q 991 2381 991 1663 
Q 991 944 1227 581 
Q 1463 219 1931 219 
Q 2303 219 2525 412 
Q 2747 606 2828 997 
L 3291 997 
z
" transform="scale(0.015625)"/>
       <path id="DejaVuSerif-74" d="M 691 2988 
L 184 2988 
L 184 3322 
L 691 3322 
L 691 4353 
L 1269 4353 
L 1269 3322 
L 2350 3322 
L 2350 2988 
L 1269 2988 
L 1269 878 
Q 1269 456 1350 337 
Q 1431 219 1650 219 
Q 1875 219 1978 351 
Q 2081 484 2088 781 
L 2522 781 
Q 2497 328 2275 118 
Q 2053 -91 1600 -91 
Q 1103 -91 897 129 
Q 691 350 691 878 
L 691 2988 
z
" transform="scale(0.015625)"/>
       <path id="DejaVuSerif-20" transform="scale(0.015625)"/>
       <path id="DejaVuSerif-6d" d="M 3316 2675 
Q 3481 3041 3739 3227 
Q 3997 3413 4341 3413 
Q 4863 3413 5119 3089 
Q 5375 2766 5375 2113 
L 5375 331 
L 5894 331 
L 5894 0 
L 4300 0 
L 4300 331 
L 4800 331 
L 4800 2047 
Q 4800 2556 4650 2772 
Q 4500 2988 4153 2988 
Q 3769 2988 3567 2697 
Q 3366 2406 3366 1850 
L 3366 331 
L 3866 331 
L 3866 0 
L 2291 0 
L 2291 331 
L 2791 331 
L 2791 2069 
Q 2791 2566 2641 2777 
Q 2491 2988 2144 2988 
Q 1759 2988 1557 2697 
Q 1356 2406 1356 1850 
L 1356 331 
L 1856 331 
L 1856 0 
L 263 0 
L 263 331 
L 781 331 
L 781 2994 
L 231 2994 
L 231 3322 
L 1356 3322 
L 1356 2731 
Q 1516 3063 1762 3238 
Q 2009 3413 2322 3413 
Q 2709 3413 2968 3220 
Q 3228 3028 3316 2675 
z
" transform="scale(0.015625)"/>
       <path id="DejaVuSerif-61" d="M 2547 1044 
L 2547 1747 
L 1806 1747 
Q 1378 1747 1168 1562 
Q 959 1378 959 997 
Q 959 650 1171 447 
Q 1384 244 1747 244 
Q 2106 244 2326 466 
Q 2547 688 2547 1044 
z
M 3122 2075 
L 3122 331 
L 3634 331 
L 3634 0 
L 2547 0 
L 2547 359 
Q 2356 128 2106 18 
Q 1856 -91 1522 -91 
Q 969 -91 644 203 
Q 319 497 319 997 
Q 319 1513 691 1797 
Q 1063 2081 1741 2081 
L 2547 2081 
L 2547 2309 
Q 2547 2688 2317 2895 
Q 2088 3103 1672 3103 
Q 1328 3103 1125 2947 
Q 922 2791 872 2484 
L 575 2484 
L 575 3156 
Q 875 3284 1158 3348 
Q 1441 3413 1709 3413 
Q 2400 3413 2761 3070 
Q 3122 2728 3122 2075 
z
" transform="scale(0.015625)"/>
       <path id="DejaVuSerif-6e" d="M 263 0 
L 263 331 
L 781 331 
L 781 2988 
L 231 2988 
L 231 3322 
L 1356 3322 
L 1356 2731 
Q 1516 3069 1770 3241 
Q 2025 3413 2363 3413 
Q 2913 3413 3172 3097 
Q 3431 2781 3431 2113 
L 3431 331 
L 3944 331 
L 3944 0 
L 2356 0 
L 2356 331 
L 2853 331 
L 2853 1931 
Q 2853 2541 2703 2767 
Q 2553 2994 2175 2994 
Q 1775 2994 1565 2701 
Q 1356 2409 1356 1850 
L 1356 331 
L 1856 331 
L 1856 0 
L 263 0 
z
" transform="scale(0.015625)"/>
       <path id="DejaVuSerif-47" d="M 4097 3272 
Q 3988 3856 3641 4136 
Q 3294 4416 2675 4416 
Q 1869 4416 1472 3897 
Q 1075 3378 1075 2328 
Q 1075 1300 1484 772 
Q 1894 244 2688 244 
Q 3041 244 3362 331 
Q 3684 419 3975 594 
L 3975 1797 
L 3097 1797 
L 3097 2131 
L 4609 2131 
L 4609 391 
Q 4194 150 3714 29 
Q 3234 -91 2688 -91 
Q 1631 -91 995 570 
Q 359 1231 359 2328 
Q 359 3434 996 4092 
Q 1634 4750 2713 4750 
Q 3113 4750 3539 4658 
Q 3966 4566 4447 4378 
L 4447 3272 
L 4097 3272 
z
" transform="scale(0.015625)"/>
       <path id="DejaVuSerif-41" d="M 1281 1691 
L 2994 1691 
L 2138 3909 
L 1281 1691 
z
M -38 0 
L -38 331 
L 372 331 
L 2034 4666 
L 2559 4666 
L 4225 331 
L 4684 331 
L 4684 0 
L 2988 0 
L 2988 331 
L 3506 331 
L 3116 1356 
L 1153 1356 
L 763 331 
L 1275 331 
L 1275 0 
L -38 0 
z
" transform="scale(0.015625)"/>
      </defs>
      <use xlink:href="#DejaVuSerif-50"/>
      <use xlink:href="#DejaVuSerif-72" transform="translate(67.285156 0)"/>
      <use xlink:href="#DejaVuSerif-65" transform="translate(115.087891 0)"/>
      <use xlink:href="#DejaVuSerif-64" transform="translate(174.267578 0)"/>
      <use xlink:href="#DejaVuSerif-69" transform="translate(238.28125 0)"/>
      <use xlink:href="#DejaVuSerif-63" transform="translate(270.263672 0)"/>
      <use xlink:href="#DejaVuSerif-74" transform="translate(326.269531 0)"/>
      <use xlink:href="#DejaVuSerif-65" transform="translate(366.455078 0)"/>
      <use xlink:href="#DejaVuSerif-64" transform="translate(425.634766 0)"/>
      <use xlink:href="#DejaVuSerif-20" transform="translate(489.648438 0)"/>
      <use xlink:href="#DejaVuSerif-6d" transform="translate(521.435547 0)"/>
      <use xlink:href="#DejaVuSerif-65" transform="translate(616.259766 0)"/>
      <use xlink:href="#DejaVuSerif-61" transform="translate(675.439453 0)"/>
      <use xlink:href="#DejaVuSerif-6e" transform="translate(735.058594 0)"/>
      <use xlink:href="#DejaVuSerif-20" transform="translate(799.462891 0)"/>
      <use xlink:href="#DejaVuSerif-47" transform="translate(831.25 0)"/>
      <use xlink:href="#DejaVuSerif-50" transform="translate(911.132812 0)"/>
      <use xlink:href="#DejaVuSerif-41" transform="translate(969.292969 0)"/>
     </g>
    </g>
   </g>
   <g id="matplotlib.axis_2">
    <g id="ytick_1">
     <g id="line2d_19">
      <path d="M 51.740938 391.134031 
L 412.100937 391.134031 
" clip-path="url(#p21c42e5e83)" style="fill: none; stroke-dasharray: 0.8,1.32; stroke-dashoffset: 0; stroke: #d4c9b2; stroke-width: 0.8"/>
     </g>
     <g id="line2d_20">
      <defs>
       <path id="m0b9ae1ffcf" d="M 0 0 
L -3.5 0 
" style="stroke: #101012; stroke-width: 0.8"/>
      </defs>
      <g>
       <use xlink:href="#m0b9ae1ffcf" x="51.740938" y="391.134031" style="fill: #101012; stroke: #101012; stroke-width: 0.8"/>
      </g>
     </g>
     <g id="text_11">
      <!-- 2.00 -->
      <g style="fill: #101012" transform="translate(21.362031 395.123211) scale(0.105 -0.105)">
       <use xlink:href="#DejaVuSerif-32"/>
       <use xlink:href="#DejaVuSerif-2e" transform="translate(63.623047 0)"/>
       <use xlink:href="#DejaVuSerif-30" transform="translate(95.410156 0)"/>
       <use xlink:href="#DejaVuSerif-30" transform="translate(159.033203 0)"/>
      </g>
     </g>
    </g>
    <g id="ytick_2">
     <g id="line2d_21">
      <path d="M 51.740938 346.089031 
L 412.100937 346.089031 
" clip-path="url(#p21c42e5e83)" style="fill: none; stroke-dasharray: 0.8,1.32; stroke-dashoffset: 0; stroke: #d4c9b2; stroke-width: 0.8"/>
     </g>
     <g id="line2d_22">
      <g>
       <use xlink:href="#m0b9ae1ffcf" x="51.740938" y="346.089031" style="fill: #101012; stroke: #101012; stroke-width: 0.8"/>
      </g>
     </g>
     <g id="text_12">
      <!-- 2.25 -->
      <g style="fill: #101012" transform="translate(21.362031 350.078211) scale(0.105 -0.105)">
       <use xlink:href="#DejaVuSerif-32"/>
       <use xlink:href="#DejaVuSerif-2e" transform="translate(63.623047 0)"/>
       <use xlink:href="#DejaVuSerif-32" transform="translate(95.410156 0)"/>
       <use xlink:href="#DejaVuSerif-35" transform="translate(159.033203 0)"/>
      </g>
     </g>
    </g>
    <g id="ytick_3">
     <g id="line2d_23">
      <path d="M 51.740938 301.044031 
L 412.100937 301.044031 
" clip-path="url(#p21c42e5e83)" style="fill: none; stroke-dasharray: 0.8,1.32; stroke-dashoffset: 0; stroke: #d4c9b2; stroke-width: 0.8"/>
     </g>
     <g id="line2d_24">
      <g>
       <use xlink:href="#m0b9ae1ffcf" x="51.740938" y="301.044031" style="fill: #101012; stroke: #101012; stroke-width: 0.8"/>
      </g>
     </g>
     <g id="text_13">
      <!-- 2.50 -->
      <g style="fill: #101012" transform="translate(21.362031 305.033211) scale(0.105 -0.105)">
       <use xlink:href="#DejaVuSerif-32"/>
       <use xlink:href="#DejaVuSerif-2e" transform="translate(63.623047 0)"/>
       <use xlink:href="#DejaVuSerif-35" transform="translate(95.410156 0)"/>
       <use xlink:href="#DejaVuSerif-30" transform="translate(159.033203 0)"/>
      </g>
     </g>
    </g>
    <g id="ytick_4">
     <g id="line2d_25">
      <path d="M 51.740938 255.999031 
L 412.100937 255.999031 
" clip-path="url(#p21c42e5e83)" style="fill: none; stroke-dasharray: 0.8,1.32; stroke-dashoffset: 0; stroke: #d4c9b2; stroke-width: 0.8"/>
     </g>
     <g id="line2d_26">
      <g>
       <use xlink:href="#m0b9ae1ffcf" x="51.740938" y="255.999031" style="fill: #101012; stroke: #101012; stroke-width: 0.8"/>
      </g>
     </g>
     <g id="text_14">
      <!-- 2.75 -->
      <g style="fill: #101012" transform="translate(21.362031 259.988211) scale(0.105 -0.105)">
       <use xlink:href="#DejaVuSerif-32"/>
       <use xlink:href="#DejaVuSerif-2e" transform="translate(63.623047 0)"/>
       <use xlink:href="#DejaVuSerif-37" transform="translate(95.410156 0)"/>
       <use xlink:href="#DejaVuSerif-35" transform="translate(159.033203 0)"/>
      </g>
     </g>
    </g>
    <g id="ytick_5">
     <g id="line2d_27">
      <path d="M 51.740938 210.954031 
L 412.100937 210.954031 
" clip-path="url(#p21c42e5e83)" style="fill: none; stroke-dasharray: 0.8,1.32; stroke-dashoffset: 0; stroke: #d4c9b2; stroke-width: 0.8"/>
     </g>
     <g id="line2d_28">
      <g>
       <use xlink:href="#m0b9ae1ffcf" x="51.740938" y="210.954031" style="fill: #101012; stroke: #101012; stroke-width: 0.8"/>
      </g>
     </g>
     <g id="text_15">
      <!-- 3.00 -->
      <g style="fill: #101012" transform="translate(21.362031 214.943211) scale(0.105 -0.105)">
       <use xlink:href="#DejaVuSerif-33"/>
       <use xlink:href="#DejaVuSerif-2e" transform="translate(63.623047 0)"/>
       <use xlink:href="#DejaVuSerif-30" transform="translate(95.410156 0)"/>
       <use xlink:href="#DejaVuSerif-30" transform="translate(159.033203 0)"/>
      </g>
     </g>
    </g>
    <g id="ytick_6">
     <g id="line2d_29">
      <path d="M 51.740938 165.909031 
L 412.100937 165.909031 
" clip-path="url(#p21c42e5e83)" style="fill: none; stroke-dasharray: 0.8,1.32; stroke-dashoffset: 0; stroke: #d4c9b2; stroke-width: 0.8"/>
     </g>
     <g id="line2d_30">
      <g>
       <use xlink:href="#m0b9ae1ffcf" x="51.740938" y="165.909031" style="fill: #101012; stroke: #101012; stroke-width: 0.8"/>
      </g>
     </g>
     <g id="text_16">
      <!-- 3.25 -->
      <g style="fill: #101012" transform="translate(21.362031 169.898211) scale(0.105 -0.105)">
       <use xlink:href="#DejaVuSerif-33"/>
       <use xlink:href="#DejaVuSerif-2e" transform="translate(63.623047 0)"/>
       <use xlink:href="#DejaVuSerif-32" transform="translate(95.410156 0)"/>
       <use xlink:href="#DejaVuSerif-35" transform="translate(159.033203 0)"/>
      </g>
     </g>
    </g>
    <g id="ytick_7">
     <g id="line2d_31">
      <path d="M 51.740938 120.864031 
L 412.100937 120.864031 
" clip-path="url(#p21c42e5e83)" style="fill: none; stroke-dasharray: 0.8,1.32; stroke-dashoffset: 0; stroke: #d4c9b2; stroke-width: 0.8"/>
     </g>
     <g id="line2d_32">
      <g>
       <use xlink:href="#m0b9ae1ffcf" x="51.740938" y="120.864031" style="fill: #101012; stroke: #101012; stroke-width: 0.8"/>
      </g>
     </g>
     <g id="text_17">
      <!-- 3.50 -->
      <g style="fill: #101012" transform="translate(21.362031 124.853211) scale(0.105 -0.105)">
       <use xlink:href="#DejaVuSerif-33"/>
       <use xlink:href="#DejaVuSerif-2e" transform="translate(63.623047 0)"/>
       <use xlink:href="#DejaVuSerif-35" transform="translate(95.410156 0)"/>
       <use xlink:href="#DejaVuSerif-30" transform="translate(159.033203 0)"/>
      </g>
     </g>
    </g>
    <g id="ytick_8">
     <g id="line2d_33">
      <path d="M 51.740938 75.819031 
L 412.100937 75.819031 
" clip-path="url(#p21c42e5e83)" style="fill: none; stroke-dasharray: 0.8,1.32; stroke-dashoffset: 0; stroke: #d4c9b2; stroke-width: 0.8"/>
     </g>
     <g id="line2d_34">
      <g>
       <use xlink:href="#m0b9ae1ffcf" x="51.740938" y="75.819031" style="fill: #101012; stroke: #101012; stroke-width: 0.8"/>
      </g>
     </g>
     <g id="text_18">
      <!-- 3.75 -->
      <g style="fill: #101012" transform="translate(21.362031 79.808211) scale(0.105 -0.105)">
       <use xlink:href="#DejaVuSerif-33"/>
       <use xlink:href="#DejaVuSerif-2e" transform="translate(63.623047 0)"/>
       <use xlink:href="#DejaVuSerif-37" transform="translate(95.410156 0)"/>
       <use xlink:href="#DejaVuSerif-35" transform="translate(159.033203 0)"/>
      </g>
     </g>
    </g>
    <g id="ytick_9">
     <g id="line2d_35">
      <path d="M 51.740938 30.774031 
L 412.100937 30.774031 
" clip-path="url(#p21c42e5e83)" style="fill: none; stroke-dasharray: 0.8,1.32; stroke-dashoffset: 0; stroke: #d4c9b2; stroke-width: 0.8"/>
     </g>
     <g id="line2d_36">
      <g>
       <use xlink:href="#m0b9ae1ffcf" x="51.740938" y="30.774031" style="fill: #101012; stroke: #101012; stroke-width: 0.8"/>
      </g>
     </g>
     <g id="text_19">
      <!-- 4.00 -->
      <g style="fill: #101012" transform="translate(21.362031 34.763211) scale(0.105 -0.105)">
       <use xlink:href="#DejaVuSerif-34"/>
       <use xlink:href="#DejaVuSerif-2e" transform="translate(63.623047 0)"/>
       <use xlink:href="#DejaVuSerif-30" transform="translate(95.410156 0)"/>
       <use xlink:href="#DejaVuSerif-30" transform="translate(159.033203 0)"/>
      </g>
     </g>
    </g>
    <g id="text_20">
     <!-- Actual mean GPA -->
     <g style="fill: #101012" transform="translate(15.178359 256.959617) rotate(-90) scale(0.105 -0.105)">
      <defs>
       <path id="DejaVuSerif-75" d="M 2266 3322 
L 3341 3322 
L 3341 331 
L 3884 331 
L 3884 0 
L 2766 0 
L 2766 588 
Q 2606 256 2353 82 
Q 2100 -91 1766 -91 
Q 1213 -91 952 223 
Q 691 538 691 1209 
L 691 2988 
L 172 2988 
L 172 3322 
L 1269 3322 
L 1269 1388 
Q 1269 781 1417 556 
Q 1566 331 1947 331 
Q 2347 331 2556 625 
Q 2766 919 2766 1478 
L 2766 2988 
L 2266 2988 
L 2266 3322 
z
" transform="scale(0.015625)"/>
       <path id="DejaVuSerif-6c" d="M 1313 331 
L 1856 331 
L 1856 0 
L 184 0 
L 184 331 
L 738 331 
L 738 4531 
L 184 4531 
L 184 4863 
L 1313 4863 
L 1313 331 
z
" transform="scale(0.015625)"/>
      </defs>
      <use xlink:href="#DejaVuSerif-41"/>
      <use xlink:href="#DejaVuSerif-63" transform="translate(72.216797 0)"/>
      <use xlink:href="#DejaVuSerif-74" transform="translate(128.222656 0)"/>
      <use xlink:href="#DejaVuSerif-75" transform="translate(168.408203 0)"/>
      <use xlink:href="#DejaVuSerif-61" transform="translate(232.8125 0)"/>
      <use xlink:href="#DejaVuSerif-6c" transform="translate(292.431641 0)"/>
      <use xlink:href="#DejaVuSerif-20" transform="translate(324.414062 0)"/>
      <use xlink:href="#DejaVuSerif-6d" transform="translate(356.201172 0)"/>
      <use xlink:href="#DejaVuSerif-65" transform="translate(451.025391 0)"/>
      <use xlink:href="#DejaVuSerif-61" transform="translate(510.205078 0)"/>
      <use xlink:href="#DejaVuSerif-6e" transform="translate(569.824219 0)"/>
      <use xlink:href="#DejaVuSerif-20" transform="translate(634.228516 0)"/>
      <use xlink:href="#DejaVuSerif-47" transform="translate(666.015625 0)"/>
      <use xlink:href="#DejaVuSerif-50" transform="translate(745.898438 0)"/>
      <use xlink:href="#DejaVuSerif-41" transform="translate(804.058594 0)"/>
     </g>
    </g>
   </g>
   <g id="line2d_37">
    <path d="M 51.740937 391.134031 
L 412.100937 30.774031 
" clip-path="url(#p21c42e5e83)" style="fill: none; stroke-dasharray: 3.7,1.6; stroke-dashoffset: 0; stroke: #4a4a4a"/>
   </g>
   <g id="LineCollection_1">
    <path d="M 202.254395 260.57802 
L 202.254395 235.876879 
" clip-path="url(#p21c42e5e83)" style="fill: none; stroke: #8b6f3c; stroke-width: 1.2"/>
    <path d="M 263.908046 195.385512 
L 263.908046 175.701066 
" clip-path="url(#p21c42e5e83)" style="fill: none; stroke: #8b6f3c; stroke-width: 1.2"/>
    <path d="M 291.546845 164.82645 
L 291.546845 145.121668 
" clip-path="url(#p21c42e5e83)" style="fill: none; stroke: #8b6f3c; stroke-width: 1.2"/>
    <path d="M 311.304516 141.085753 
L 311.304516 122.875991 
" clip-path="url(#p21c42e5e83)" style="fill: none; stroke: #8b6f3c; stroke-width: 1.2"/>
    <path d="M 325.235395 129.525213 
L 325.235395 113.759147 
" clip-path="url(#p21c42e5e83)" style="fill: none; stroke: #8b6f3c; stroke-width: 1.2"/>
    <path d="M 338.841224 118.576297 
L 338.841224 103.966946 
" clip-path="url(#p21c42e5e83)" style="fill: none; stroke: #8b6f3c; stroke-width: 1.2"/>
    <path d="M 353.619475 96.519736 
L 353.619475 82.422452 
" clip-path="url(#p21c42e5e83)" style="fill: none; stroke: #8b6f3c; stroke-width: 1.2"/>
    <path d="M 369.318402 82.263506 
L 369.318402 70.586395 
" clip-path="url(#p21c42e5e83)" style="fill: none; stroke: #8b6f3c; stroke-width: 1.2"/>
    <path d="M 385.745562 58.526915 
L 385.745562 50.270283 
" clip-path="url(#p21c42e5e83)" style="fill: none; stroke: #8b6f3c; stroke-width: 1.2"/>
    <path d="M 404.014569 43.332901 
L 404.014569 36.551518 
" clip-path="url(#p21c42e5e83)" style="fill: none; stroke: #8b6f3c; stroke-width: 1.2"/>
   </g>
   <g id="line2d_38">
    <defs>
     <path id="mad20c314a9" d="M 3 0 
L -3 -0 
" style="stroke: #8b6f3c; stroke-width: 0.6"/>
    </defs>
    <g clip-path="url(#p21c42e5e83)">
     <use xlink:href="#mad20c314a9" x="202.254395" y="260.57802" style="fill: #c9a46a; stroke: #8b6f3c; stroke-width: 0.6"/>
     <use xlink:href="#mad20c314a9" x="263.908046" y="195.385512" style="fill: #c9a46a; stroke: #8b6f3c; stroke-width: 0.6"/>
     <use xlink:href="#mad20c314a9" x="291.546845" y="164.82645" style="fill: #c9a46a; stroke: #8b6f3c; stroke-width: 0.6"/>
     <use xlink:href="#mad20c314a9" x="311.304516" y="141.085753" style="fill: #c9a46a; stroke: #8b6f3c; stroke-width: 0.6"/>
     <use xlink:href="#mad20c314a9" x="325.235395" y="129.525213" style="fill: #c9a46a; stroke: #8b6f3c; stroke-width: 0.6"/>
     <use xlink:href="#mad20c314a9" x="338.841224" y="118.576297" style="fill: #c9a46a; stroke: #8b6f3c; stroke-width: 0.6"/>
     <use xlink:href="#mad20c314a9" x="353.619475" y="96.519736" style="fill: #c9a46a; stroke: #8b6f3c; stroke-width: 0.6"/>
     <use xlink:href="#mad20c314a9" x="369.318402" y="82.263506" style="fill: #c9a46a; stroke: #8b6f3c; stroke-width: 0.6"/>
     <use xlink:href="#mad20c314a9" x="385.745562" y="58.526915" style="fill: #c9a46a; stroke: #8b6f3c; stroke-width: 0.6"/>
     <use xlink:href="#mad20c314a9" x="404.014569" y="43.332901" style="fill: #c9a46a; stroke: #8b6f3c; stroke-width: 0.6"/>
    </g>
   </g>
   <g id="line2d_39">
    <g clip-path="url(#p21c42e5e83)">
     <use xlink:href="#mad20c314a9" x="202.254395" y="235.876879" style="fill: #c9a46a; stroke: #8b6f3c; stroke-width: 0.6"/>
     <use xlink:href="#mad20c314a9" x="263.908046" y="175.701066" style="fill: #c9a46a; stroke: #8b6f3c; stroke-width: 0.6"/>
     <use xlink:href="#mad20c314a9" x="291.546845" y="145.121668" style="fill: #c9a46a; stroke: #8b6f3c; stroke-width: 0.6"/>
     <use xlink:href="#mad20c314a9" x="311.304516" y="122.875991" style="fill: #c9a46a; stroke: #8b6f3c; stroke-width: 0.6"/>
     <use xlink:href="#mad20c314a9" x="325.235395" y="113.759147" style="fill: #c9a46a; stroke: #8b6f3c; stroke-width: 0.6"/>
     <use xlink:href="#mad20c314a9" x="338.841224" y="103.966946" style="fill: #c9a46a; stroke: #8b6f3c; stroke-width: 0.6"/>
     <use xlink:href="#mad20c314a9" x="353.619475" y="82.422452" style="fill: #c9a46a; stroke: #8b6f3c; stroke-width: 0.6"/>
     <use xlink:href="#mad20c314a9" x="369.318402" y="70.586395" style="fill: #c9a46a; stroke: #8b6f3c; stroke-width: 0.6"/>
     <use xlink:href="#mad20c314a9" x="385.745562" y="50.270283" style="fill: #c9a46a; stroke: #8b6f3c; stroke-width: 0.6"/>
     <use xlink:href="#mad20c314a9" x="404.014569" y="36.551518" style="fill: #c9a46a; stroke: #8b6f3c; stroke-width: 0.6"/>
    </g>
   </g>
   <g id="line2d_40">
    <path d="M 51.740937 404.937073 
L 59.095223 397.29406 
L 66.449509 389.651047 
L 73.803795 382.008035 
L 81.15808 374.365022 
L 88.512366 366.722009 
L 95.866652 359.078996 
L 103.220937 351.435983 
L 110.575223 343.792971 
L 117.929509 336.149958 
L 125.283795 328.506945 
L 132.63808 320.863932 
L 139.992366 313.220919 
L 147.346652 305.577907 
L 154.700937 297.934894 
L 162.055223 290.291881 
L 169.409509 282.648868 
L 176.763795 275.005855 
L 184.11808 267.362843 
L 191.472366 259.71983 
L 198.826652 252.076817 
L 206.180938 244.433804 
L 213.535223 236.790791 
L 220.889509 229.147779 
L 228.243795 221.504766 
L 235.59808 213.861753 
L 242.952366 206.21874 
L 250.306652 198.575728 
L 257.660937 190.932715 
L 265.015223 183.289702 
L 272.369509 175.646689 
L 279.723795 168.003676 
L 287.07808 160.360664 
L 294.432366 152.717651 
L 301.786652 145.074638 
L 309.140937 137.431625 
L 316.495223 129.788612 
L 323.849509 122.1456 
L 331.203795 114.502587 
L 338.55808 106.859574 
L 345.912366 99.216561 
L 353.266652 91.573548 
L 360.620937 83.930536 
L 367.975223 76.287523 
L 375.329509 68.64451 
L 382.683795 61.001497 
L 390.03808 53.358485 
L 397.392366 45.715472 
L 404.746652 38.072459 
L 412.100937 30.429446 
" clip-path="url(#p21c42e5e83)" style="fill: none; stroke: #101012; stroke-width: 1.2; stroke-linecap: square"/>
   </g>
   <g id="line2d_41">
    <defs>
     <path id="m7fe930b89b" d="M 0 4 
C 1.060812 4 2.078319 3.578535 2.828427 2.828427 
C 3.578535 2.078319 4 1.060812 4 0 
C 4 -1.060812 3.578535 -2.078319 2.828427 -2.828427 
C 2.078319 -3.578535 1.060812 -4 0 -4 
C -1.060812 -4 -2.078319 -3.578535 -2.828427 -2.828427 
C -3.578535 -2.078319 -4 -1.060812 -4 0 
C -4 1.060812 -3.578535 2.078319 -2.828427 2.828427 
C -2.078319 3.578535 -1.060812 4 0 4 
z
" style="stroke: #101012; stroke-width: 0.6"/>
    </defs>
    <g clip-path="url(#p21c42e5e83)">
     <use xlink:href="#m7fe930b89b" x="202.254395" y="248.227449" style="fill: #c9a46a; stroke: #101012; stroke-width: 0.6"/>
     <use xlink:href="#m7fe930b89b" x="263.908046" y="185.543289" style="fill: #c9a46a; stroke: #101012; stroke-width: 0.6"/>
     <use xlink:href="#m7fe930b89b" x="291.546845" y="154.974059" style="fill: #c9a46a; stroke: #101012; stroke-width: 0.6"/>
     <use xlink:href="#m7fe930b89b" x="311.304516" y="131.980872" style="fill: #c9a46a; stroke: #101012; stroke-width: 0.6"/>
     <use xlink:href="#m7fe930b89b" x="325.235395" y="121.64218" style="fill: #c9a46a; stroke: #101012; stroke-width: 0.6"/>
     <use xlink:href="#m7fe930b89b" x="338.841224" y="111.271621" style="fill: #c9a46a; stroke: #101012; stroke-width: 0.6"/>
     <use xlink:href="#m7fe930b89b" x="353.619475" y="89.471094" style="fill: #c9a46a; stroke: #101012; stroke-width: 0.6"/>
     <use xlink:href="#m7fe930b89b" x="369.318402" y="76.424951" style="fill: #c9a46a; stroke: #101012; stroke-width: 0.6"/>
     <use xlink:href="#m7fe930b89b" x="385.745562" y="54.398599" style="fill: #c9a46a; stroke: #101012; stroke-width: 0.6"/>
     <use xlink:href="#m7fe930b89b" x="404.014569" y="39.94221" style="fill: #c9a46a; stroke: #101012; stroke-width: 0.6"/>
    </g>
   </g>
   <g id="patch_3">
    <path d="M 51.740938 391.134031 
L 51.740938 30.774031 
" style="fill: none; stroke: #101012; stroke-width: 0.8; stroke-linejoin: miter; stroke-linecap: square"/>
   </g>
   <g id="patch_4">
    <path d="M 51.740937 391.134031 
L 412.100937 391.134031 
" style="fill: none; stroke: #101012; stroke-width: 0.8; stroke-linejoin: miter; stroke-linecap: square"/>
   </g>
   <g id="text_21">
    <!-- Calibration — decile bins on test quarter -->
    <g style="fill: #101012" transform="translate(51.740938 16.774031) scale(0.126 -0.126)">
     <defs>
      <path id="DejaVuSerif-43" d="M 4513 1234 
Q 4306 581 3820 245 
Q 3334 -91 2591 -91 
Q 2134 -91 1743 65 
Q 1353 222 1050 525 
Q 700 875 529 1320 
Q 359 1766 359 2328 
Q 359 3416 987 4083 
Q 1616 4750 2644 4750 
Q 3025 4750 3456 4650 
Q 3888 4550 4384 4347 
L 4384 3272 
L 4031 3272 
Q 3916 3859 3567 4137 
Q 3219 4416 2591 4416 
Q 1844 4416 1459 3886 
Q 1075 3356 1075 2328 
Q 1075 1303 1459 773 
Q 1844 244 2591 244 
Q 3113 244 3450 492 
Q 3788 741 3938 1234 
L 4513 1234 
z
" transform="scale(0.015625)"/>
      <path id="DejaVuSerif-62" d="M 738 331 
L 738 4531 
L 184 4531 
L 184 4863 
L 1313 4863 
L 1313 2803 
Q 1481 3116 1742 3264 
Q 2003 3413 2388 3413 
Q 3000 3413 3387 2928 
Q 3775 2444 3775 1663 
Q 3775 881 3387 395 
Q 3000 -91 2388 -91 
Q 2003 -91 1742 57 
Q 1481 206 1313 519 
L 1313 0 
L 184 0 
L 184 331 
L 738 331 
z
M 1313 1497 
Q 1313 897 1542 583 
Q 1772 269 2209 269 
Q 2650 269 2876 622 
Q 3103 975 3103 1663 
Q 3103 2353 2876 2703 
Q 2650 3053 2209 3053 
Q 1772 3053 1542 2737 
Q 1313 2422 1313 1825 
L 1313 1497 
z
" transform="scale(0.015625)"/>
      <path id="DejaVuSerif-6f" d="M 1925 219 
Q 2388 219 2623 584 
Q 2859 950 2859 1663 
Q 2859 2375 2623 2739 
Q 2388 3103 1925 3103 
Q 1463 3103 1227 2739 
Q 991 2375 991 1663 
Q 991 950 1228 584 
Q 1466 219 1925 219 
z
M 1925 -91 
Q 1200 -91 759 389 
Q 319 869 319 1663 
Q 319 2456 758 2934 
Q 1197 3413 1925 3413 
Q 2653 3413 3092 2934 
Q 3531 2456 3531 1663 
Q 3531 869 3092 389 
Q 2653 -91 1925 -91 
z
" transform="scale(0.015625)"/>
      <path id="DejaVuSerif-2014" d="M 281 1906 
L 6119 1906 
L 6119 1491 
L 281 1491 
L 281 1906 
z
" transform="scale(0.015625)"/>
      <path id="DejaVuSerif-73" d="M 359 184 
L 359 959 
L 691 959 
Q 703 588 923 403 
Q 1144 219 1575 219 
Q 1963 219 2166 364 
Q 2369 509 2369 788 
Q 2369 1006 2220 1140 
Q 2072 1275 1594 1428 
L 1178 1569 
Q 750 1706 558 1912 
Q 366 2119 366 2438 
Q 366 2894 700 3153 
Q 1034 3413 1625 3413 
Q 1888 3413 2178 3344 
Q 2469 3275 2778 3144 
L 2778 2419 
L 2447 2419 
Q 2434 2741 2221 2922 
Q 2009 3103 1644 3103 
Q 1281 3103 1095 2975 
Q 909 2847 909 2591 
Q 909 2381 1050 2254 
Q 1191 2128 1613 1997 
L 2069 1856 
Q 2541 1709 2748 1489 
Q 2956 1269 2956 922 
Q 2956 450 2595 179 
Q 2234 -91 1600 -91 
Q 1278 -91 972 -22 
Q 666 47 359 184 
z
" transform="scale(0.015625)"/>
      <path id="DejaVuSerif-71" d="M 3359 2988 
L 3359 -997 
L 3909 -997 
L 3909 -1331 
L 2241 -1331 
L 2241 -997 
L 2784 -997 
L 2784 519 
Q 2616 206 2355 57 
Q 2094 -91 1709 -91 
Q 1097 -91 708 395 
Q 319 881 319 1663 
Q 319 2444 706 2928 
Q 1094 3413 1709 3413 
Q 2094 3413 2355 3264 
Q 2616 3116 2784 2803 
L 2784 3322 
L 3909 3322 
L 3909 2988 
L 3359 2988 
z
M 2784 1825 
Q 2784 2422 2554 2737 
Q 2325 3053 1888 3053 
Q 1444 3053 1217 2703 
Q 991 2353 991 1663 
Q 991 975 1217 622 
Q 1444 269 1888 269 
Q 2325 269 2554 583 
Q 2784 897 2784 1497 
L 2784 1825 
z
" transform="scale(0.015625)"/>
     </defs>
     <use xlink:href="#DejaVuSerif-43"/>
     <use xlink:href="#DejaVuSerif-61" transform="translate(76.513672 0)"/>
     <use xlink:href="#DejaVuSerif-6c" transform="translate(136.132812 0)"/>
     <use xlink:href="#DejaVuSerif-69" transform="translate(168.115234 0)"/>
     <use xlink:href="#DejaVuSerif-62" transform="translate(200.097656 0)"/>
     <use xlink:href="#DejaVuSerif-72" transform="translate(264.111328 0)"/>
     <use xlink:href="#DejaVuSerif-61" transform="translate(311.914062 0)"/>
     <use xlink:href="#DejaVuSerif-74" transform="translate(371.533203 0)"/>
     <use xlink:href="#DejaVuSerif-69" transform="translate(411.71875 0)"/>
     <use xlink:href="#DejaVuSerif-6f" transform="translate(443.701172 0)"/>
     <use xlink:href="#DejaVuSerif-6e" transform="translate(503.90625 0)"/>
     <use xlink:href="#DejaVuSerif-20" transform="translate(568.310547 0)"/>
     <use xlink:href="#DejaVuSerif-2014" transform="translate(600.097656 0)"/>
     <use xlink:href="#DejaVuSerif-20" transform="translate(700.097656 0)"/>
     <use xlink:href="#DejaVuSerif-64" transform="translate(731.884766 0)"/>
     <use xlink:href="#DejaVuSerif-65" transform="translate(795.898438 0)"/>
     <use xlink:href="#DejaVuSerif-63" transform="translate(855.078125 0)"/>
     <use xlink:href="#DejaVuSerif-69" transform="translate(911.083984 0)"/>
     <use xlink:href="#DejaVuSerif-6c" transform="translate(943.066406 0)"/>
     <use xlink:href="#DejaVuSerif-65" transform="translate(975.048828 0)"/>
     <use xlink:href="#DejaVuSerif-20" transform="translate(1034.228516 0)"/>
     <use xlink:href="#DejaVuSerif-62" transform="translate(1066.015625 0)"/>
     <use xlink:href="#DejaVuSerif-69" transform="translate(1130.029297 0)"/>
     <use xlink:href="#DejaVuSerif-6e" transform="translate(1162.011719 0)"/>
     <use xlink:href="#DejaVuSerif-73" transform="translate(1226.416016 0)"/>
     <use xlink:href="#DejaVuSerif-20" transform="translate(1277.734375 0)"/>
     <use xlink:href="#DejaVuSerif-6f" transform="translate(1309.521484 0)"/>
     <use xlink:href="#DejaVuSerif-6e" transform="translate(1369.726562 0)"/>
     <use xlink:href="#DejaVuSerif-20" transform="translate(1434.130859 0)"/>
     <use xlink:href="#DejaVuSerif-74" transform="translate(1465.917969 0)"/>
     <use xlink:href="#DejaVuSerif-65" transform="translate(1506.103516 0)"/>
     <use xlink:href="#DejaVuSerif-73" transform="translate(1565.283203 0)"/>
     <use xlink:href="#DejaVuSerif-74" transform="translate(1616.601562 0)"/>
     <use xlink:href="#DejaVuSerif-20" transform="translate(1656.787109 0)"/>
     <use xlink:href="#DejaVuSerif-71" transform="translate(1688.574219 0)"/>
     <use xlink:href="#DejaVuSerif-75" transform="translate(1752.587891 0)"/>
     <use xlink:href="#DejaVuSerif-61" transform="translate(1816.992188 0)"/>
     <use xlink:href="#DejaVuSerif-72" transform="translate(1876.611328 0)"/>
     <use xlink:href="#DejaVuSerif-74" transform="translate(1924.414062 0)"/>
     <use xlink:href="#DejaVuSerif-65" transform="translate(1964.599609 0)"/>
     <use xlink:href="#DejaVuSerif-72" transform="translate(2023.779297 0)"/>
    </g>
   </g>
   <g id="legend_1">
    <g id="line2d_42">
     <path d="M 61.190938 44.527391 
L 71.690938 44.527391 
L 82.190938 44.527391 
" style="fill: none; stroke-dasharray: 3.7,1.6; stroke-dashoffset: 0; stroke: #4a4a4a"/>
    </g>
    <g id="text_22">
     <!-- Perfect calibration -->
     <g style="fill: #101012" transform="translate(90.590937 48.202391) scale(0.105 -0.105)">
      <defs>
       <path id="DejaVuSerif-66" d="M 2753 4078 
L 2450 4078 
Q 2447 4313 2317 4434 
Q 2188 4556 1941 4556 
Q 1619 4556 1487 4379 
Q 1356 4203 1356 3750 
L 1356 3322 
L 2284 3322 
L 2284 2988 
L 1356 2988 
L 1356 331 
L 2094 331 
L 2094 0 
L 231 0 
L 231 331 
L 781 331 
L 781 2988 
L 231 2988 
L 231 3322 
L 781 3322 
L 781 3738 
Q 781 4294 1070 4578 
Q 1359 4863 1919 4863 
Q 2128 4863 2337 4825 
Q 2547 4788 2753 4709 
L 2753 4078 
z
" transform="scale(0.015625)"/>
      </defs>
      <use xlink:href="#DejaVuSerif-50"/>
      <use xlink:href="#DejaVuSerif-65" transform="translate(62.785156 0)"/>
      <use xlink:href="#DejaVuSerif-72" transform="translate(121.964844 0)"/>
      <use xlink:href="#DejaVuSerif-66" transform="translate(169.767578 0)"/>
      <use xlink:href="#DejaVuSerif-65" transform="translate(206.779297 0)"/>
      <use xlink:href="#DejaVuSerif-63" transform="translate(265.958984 0)"/>
      <use xlink:href="#DejaVuSerif-74" transform="translate(321.964844 0)"/>
      <use xlink:href="#DejaVuSerif-20" transform="translate(362.150391 0)"/>
      <use xlink:href="#DejaVuSerif-63" transform="translate(393.9375 0)"/>
      <use xlink:href="#DejaVuSerif-61" transform="translate(449.943359 0)"/>
      <use xlink:href="#DejaVuSerif-6c" transform="translate(509.5625 0)"/>
      <use xlink:href="#DejaVuSerif-69" transform="translate(541.544922 0)"/>
      <use xlink:href="#DejaVuSerif-62" transform="translate(573.527344 0)"/>
      <use xlink:href="#DejaVuSerif-72" transform="translate(637.541016 0)"/>
      <use xlink:href="#DejaVuSerif-61" transform="translate(685.34375 0)"/>
      <use xlink:href="#DejaVuSerif-74" transform="translate(744.962891 0)"/>
      <use xlink:href="#DejaVuSerif-69" transform="translate(785.148438 0)"/>
      <use xlink:href="#DejaVuSerif-6f" transform="translate(817.130859 0)"/>
      <use xlink:href="#DejaVuSerif-6e" transform="translate(877.335938 0)"/>
     </g>
    </g>
    <g id="line2d_43">
     <path d="M 61.190938 59.939422 
L 71.690938 59.939422 
L 82.190938 59.939422 
" style="fill: none; stroke: #101012; stroke-width: 1.2; stroke-linecap: square"/>
    </g>
    <g id="text_23">
     <!-- Fit slope = 1.04 -->
     <g style="fill: #101012" transform="translate(90.590937 63.614422) scale(0.105 -0.105)">
      <defs>
       <path id="DejaVuSerif-46" d="M 353 0 
L 353 331 
L 947 331 
L 947 4331 
L 353 4331 
L 353 4666 
L 4172 4666 
L 4172 3628 
L 3788 3628 
L 3788 4281 
L 1581 4281 
L 1581 2719 
L 3175 2719 
L 3175 3303 
L 3559 3303 
L 3559 1753 
L 3175 1753 
L 3175 2338 
L 1581 2338 
L 1581 331 
L 2328 331 
L 2328 0 
L 353 0 
z
" transform="scale(0.015625)"/>
       <path id="DejaVuSerif-70" d="M 1313 1825 
L 1313 1497 
Q 1313 897 1542 583 
Q 1772 269 2209 269 
Q 2650 269 2876 622 
Q 3103 975 3103 1663 
Q 3103 2353 2876 2703 
Q 2650 3053 2209 3053 
Q 1772 3053 1542 2737 
Q 1313 2422 1313 1825 
z
M 738 2988 
L 184 2988 
L 184 3322 
L 1313 3322 
L 1313 2803 
Q 1481 3116 1742 3264 
Q 2003 3413 2388 3413 
Q 3000 3413 3387 2928 
Q 3775 2444 3775 1663 
Q 3775 881 3387 395 
Q 3000 -91 2388 -91 
Q 2003 -91 1742 57 
Q 1481 206 1313 519 
L 1313 -997 
L 1856 -997 
L 1856 -1331 
L 184 -1331 
L 184 -997 
L 738 -997 
L 738 2988 
z
" transform="scale(0.015625)"/>
       <path id="DejaVuSerif-3d" d="M 678 2894 
L 4684 2894 
L 4684 2394 
L 678 2394 
L 678 2894 
z
M 678 1619 
L 4684 1619 
L 4684 1119 
L 678 1119 
L 678 1619 
z
" transform="scale(0.015625)"/>
       <path id="DejaVuSerif-31" d="M 909 0 
L 909 331 
L 1722 331 
L 1722 4213 
L 781 3603 
L 781 4013 
L 1919 4750 
L 2350 4750 
L 2350 331 
L 3163 331 
L 3163 0 
L 909 0 
z
" transform="scale(0.015625)"/>
      </defs>
      <use xlink:href="#DejaVuSerif-46"/>
      <use xlink:href="#DejaVuSerif-69" transform="translate(69.384766 0)"/>
      <use xlink:href="#DejaVuSerif-74" transform="translate(101.367188 0)"/>
      <use xlink:href="#DejaVuSerif-20" transform="translate(141.552734 0)"/>
      <use xlink:href="#DejaVuSerif-73" transform="translate(173.339844 0)"/>
      <use xlink:href="#DejaVuSerif-6c" transform="translate(224.658203 0)"/>
      <use xlink:href="#DejaVuSerif-6f" transform="translate(256.640625 0)"/>
      <use xlink:href="#DejaVuSerif-70" transform="translate(316.845703 0)"/>
      <use xlink:href="#DejaVuSerif-65" transform="translate(380.859375 0)"/>
      <use xlink:href="#DejaVuSerif-20" transform="translate(440.039062 0)"/>
      <use xlink:href="#DejaVuSerif-3d" transform="translate(471.826172 0)"/>
      <use xlink:href="#DejaVuSerif-20" transform="translate(555.615234 0)"/>
      <use xlink:href="#DejaVuSerif-31" transform="translate(587.402344 0)"/>
      <use xlink:href="#DejaVuSerif-2e" transform="translate(651.025391 0)"/>
      <use xlink:href="#DejaVuSerif-30" transform="translate(682.8125 0)"/>
      <use xlink:href="#DejaVuSerif-34" transform="translate(746.435547 0)"/>
     </g>
    </g>
    <g id="LineCollection_2">
     <path d="M 71.690938 80.601453 
L 71.690938 70.101453 
" style="fill: none; stroke: #8b6f3c; stroke-width: 1.2"/>
    </g>
    <g id="line2d_44">
     <g>
      <use xlink:href="#mad20c314a9" x="71.690938" y="80.601453" style="fill: #c9a46a; stroke: #8b6f3c; stroke-width: 0.6"/>
     </g>
    </g>
    <g id="line2d_45">
     <g>
      <use xlink:href="#mad20c314a9" x="71.690938" y="70.101453" style="fill: #c9a46a; stroke: #8b6f3c; stroke-width: 0.6"/>
     </g>
    </g>
    <g id="line2d_46"/>
    <g id="line2d_47">
     <g>
      <use xlink:href="#m7fe930b89b" x="71.690938" y="75.351453" style="fill: #c9a46a; stroke: #101012; stroke-width: 0.6"/>
     </g>
    </g>
    <g id="text_24">
     <!-- XGBoost (deciles) -->
     <g style="fill: #101012" transform="translate(90.590937 79.026453) scale(0.105 -0.105)">
      <defs>
       <path id="DejaVuSerif-58" d="M 2119 1997 
L 978 331 
L 1581 331 
L 1581 0 
L 38 0 
L 38 331 
L 575 331 
L 1919 2291 
L 556 4331 
L 56 4331 
L 56 4666 
L 1906 4666 
L 1906 4331 
L 1356 4331 
L 2356 2828 
L 3384 4331 
L 2784 4331 
L 2784 4666 
L 4313 4666 
L 4313 4331 
L 3788 4331 
L 2553 2534 
L 4025 331 
L 4525 331 
L 4525 0 
L 2675 0 
L 2675 331 
L 3231 331 
L 2119 1997 
z
" transform="scale(0.015625)"/>
       <path id="DejaVuSerif-42" d="M 1581 331 
L 2516 331 
Q 3078 331 3337 575 
Q 3597 819 3597 1350 
Q 3597 1878 3339 2120 
Q 3081 2363 2516 2363 
L 1581 2363 
L 1581 331 
z
M 1581 2694 
L 2375 2694 
Q 2888 2694 3123 2891 
Q 3359 3088 3359 3513 
Q 3359 3941 3123 4136 
Q 2888 4331 2375 4331 
L 1581 4331 
L 1581 2694 
z
M 353 0 
L 353 331 
L 947 331 
L 947 4331 
L 353 4331 
L 353 4666 
L 2656 4666 
Q 3363 4666 3720 4377 
Q 4078 4088 4078 3513 
Q 4078 3097 3829 2850 
Q 3581 2603 3103 2547 
Q 3697 2472 4005 2167 
Q 4313 1863 4313 1350 
Q 4313 656 3875 328 
Q 3438 0 2509 0 
L 353 0 
z
" transform="scale(0.015625)"/>
       <path id="DejaVuSerif-28" d="M 2041 -997 
Q 1281 -656 893 83 
Q 506 822 506 1931 
Q 506 3044 893 3783 
Q 1281 4522 2041 4863 
L 2041 4556 
Q 1559 4225 1350 3623 
Q 1141 3022 1141 1931 
Q 1141 844 1350 242 
Q 1559 -359 2041 -691 
L 2041 -997 
z
" transform="scale(0.015625)"/>
       <path id="DejaVuSerif-29" d="M 453 -997 
L 453 -691 
Q 934 -359 1145 242 
Q 1356 844 1356 1931 
Q 1356 3022 1145 3623 
Q 934 4225 453 4556 
L 453 4863 
Q 1216 4522 1603 3783 
Q 1991 3044 1991 1931 
Q 1991 822 1603 83 
Q 1216 -656 453 -997 
z
" transform="scale(0.015625)"/>
      </defs>
      <use xlink:href="#DejaVuSerif-58"/>
      <use xlink:href="#DejaVuSerif-47" transform="translate(71.191406 0)"/>
      <use xlink:href="#DejaVuSerif-42" transform="translate(151.074219 0)"/>
      <use xlink:href="#DejaVuSerif-6f" transform="translate(224.560547 0)"/>
      <use xlink:href="#DejaVuSerif-6f" transform="translate(284.765625 0)"/>
      <use xlink:href="#DejaVuSerif-73" transform="translate(344.970703 0)"/>
      <use xlink:href="#DejaVuSerif-74" transform="translate(396.289062 0)"/>
      <use xlink:href="#DejaVuSerif-20" transform="translate(436.474609 0)"/>
      <use xlink:href="#DejaVuSerif-28" transform="translate(468.261719 0)"/>
      <use xlink:href="#DejaVuSerif-64" transform="translate(507.275391 0)"/>
      <use xlink:href="#DejaVuSerif-65" transform="translate(571.289062 0)"/>
      <use xlink:href="#DejaVuSerif-63" transform="translate(630.46875 0)"/>
      <use xlink:href="#DejaVuSerif-69" transform="translate(686.474609 0)"/>
      <use xlink:href="#DejaVuSerif-6c" transform="translate(718.457031 0)"/>
      <use xlink:href="#DejaVuSerif-65" transform="translate(750.439453 0)"/>
      <use xlink:href="#DejaVuSerif-73" transform="translate(809.619141 0)"/>
      <use xlink:href="#DejaVuSerif-29" transform="translate(860.9375 0)"/>
     </g>
    </g>
   </g>
  </g>
 </g>
 <defs>
  <clipPath id="p21c42e5e83">
   <rect x="51.740938" y="30.774031" width="360.36" height="360.36"/>
  </clipPath>
 </defs>
</svg>
